<?xml version="1.0" encoding="utf-8"?>
<!-- Generator: Adobe Illustrator 21.1.0, SVG Export Plug-In . SVG Version: 6.00 Build 0)  -->
<svg version="1.1" id="Calque_1" xmlns="http://www.w3.org/2000/svg" xmlns:xlink="http://www.w3.org/1999/xlink" x="0px" y="0px"
	 viewBox="0 0 432 432" style="enable-background:new 0 0 432 432;" xml:space="preserve">
<style type="text/css">
	.st0{fill:#0C6D95;}
	.st1{fill:#5A9BB6;}
	.st2{fill:#1A1A1A;}
	.st3{fill:#736357;}
	.st4{fill:#B3B3B3;}
	.st5{fill:#534741;}
	.st6{fill:#8C3F42;}
	.st7{fill:#608972;}
	.st8{fill:#AFA485;}
	.st9{fill:#333333;}
	.st10{fill:#CE9C61;}
	.st11{fill:#546938;}
	.st12{fill:#99B673;}
	.st13{fill:#995C61;}
	.st14{fill:#A8966C;}
	.st15{fill:#7F5058;}
</style>
<g>
	<g>
		<g>
			<path d="M186.8,91.6c-0.1,3.7,0,7.3,0.3,10.7c0.3,3.5,0.5,6.9,0.8,10.4c0.1,1.6,0.2,3.1,0.3,4.7c0,1.6,0.1,3.1,0.2,4.8
				c0,0.5,0,0.8-0.1,1.1c0,0.9-0.6,1.4-1.6,1.6c-0.9,0.1-1.9,0.2-2.8,0.2c-0.9,0-1.9,0.1-2.8,0.1c-1.5,0-2.5-0.7-2.9-2.2
				c0-0.2-0.1-0.5-0.1-0.7c0-0.2,0-0.4,0-0.7c-0.2-3.7-0.5-7.4-0.7-11c-0.2-3.7-0.4-7.3-0.6-11c-0.1-3.4-0.2-6.8-0.3-10.1
				c-0.1-3.3-0.2-6.7-0.2-10.1v-1.1c0-0.6-0.2-0.9-0.3-1.1c-0.2-0.2-0.6-0.3-1.2-0.3c-0.8,0-1.6-0.1-2.3-0.1c-0.7,0-1.5,0-2.3-0.1
				c-0.2,0-0.5,0-0.7-0.1c-0.3,0-0.5-0.1-0.7-0.2c-0.3-0.1-0.4-0.3-0.4-0.6c0-0.3,0.1-0.5,0.4-0.6c0.3-0.2,0.8-0.3,1.3-0.4
				c0.4,0,0.7-0.1,1.1,0c0.3,0,0.7,0,1.1,0l19.6,0.2c0.2,0,0.5,0,0.8,0c0.3,0,0.5,0.1,0.8,0.2c0.4,0.1,0.6,0.3,0.7,0.6
				c0.1,0.4-0.1,0.8-0.6,1.1c-0.3,0.1-0.6,0.2-0.9,0.2c-0.3,0-0.6,0-0.9,0h-4c-0.6,0-0.9,0.3-0.9,0.9v1.3c0,2.1,0.1,4.2,0.1,6.3
				C186.7,87.7,186.7,89.7,186.8,91.6z"/>
			<path d="M225.3,78.1c1.2,2.2,2,4.9,2.5,8c0.5,3.1,0.7,6.3,0.6,9.7c-0.1,3.4-0.4,6.7-1,10c-0.6,3.3-1.4,6.3-2.3,8.9
				c-1.4,3.7-3,6.4-4.8,8c-1.8,1.6-3.7,2.4-5.7,2.4c-2,0-3.9-0.8-5.9-2.2c-2-1.5-3.7-3.4-5.3-5.9c-1.6-2.5-2.9-5.3-3.9-8.5
				c-1-3.2-1.6-6.6-1.7-10.1c-0.1-3.5,0.2-7,1.2-10.6c0.9-3.6,2.6-7,4.9-10.2c1.2-1.7,2.7-3,4.3-3.8c1.6-0.9,3.4-1.4,5.4-1.6
				c2.5-0.3,4.8,0.1,6.8,1C222.4,74.2,224,75.8,225.3,78.1z M224.1,110.3c1.5-5.2,2.3-9.9,2.3-14.3c0-4.4-0.5-8.1-1.4-11.3
				c-0.9-3.1-2.1-5.5-3.7-7.2c-1.5-1.7-3-2.3-4.6-2c-1.6,0.3-3,1.7-4.2,4.2c-1.3,2.5-2.1,6.3-2.4,11.5c-0.2,3.5-0.2,7,0,10.4
				c0.3,3.4,0.7,6.5,1.4,9.2c0.7,2.7,1.5,5,2.4,6.8c0.9,1.8,2,2.8,3.1,3c1.1,0.2,2.3-0.4,3.5-2C221.7,117,222.9,114.2,224.1,110.3z"
				/>
		</g>
		<g>
			<g>
				<path d="M207.4,254.6c0.4,0.1,0.6,0.3,0.6,0.7c0,0.3-0.2,0.6-0.6,0.8c-0.4,0.1-0.9,0.2-1.3,0.2c-1.8,0.1-3.6,0.2-5.4,0.3
					c-1.8,0.1-3.6,0.2-5.4,0.3c-0.7,0-1.3,0.1-2,0c-0.7,0-1.3-0.2-2-0.5c-0.4-0.1-0.6-0.4-0.6-0.8c0-0.4,0.2-0.7,0.6-0.9
					c0.1-0.1,0.2-0.2,0.4-0.2c0.1,0,0.3-0.1,0.4-0.1c0.2,0,0.5-0.1,0.7-0.1c0.2,0,0.5-0.1,0.8-0.1c0-5.9,0.1-11.7,0.1-17.5
					c0-5.7,0.1-11.5,0.1-17.3c0-1.6,0-3.2-0.1-4.8c0-1.6-0.1-3.2-0.1-4.8c0-0.5-0.1-0.9-0.2-1c-0.1-0.2-0.5-0.3-1-0.3
					c-0.4,0-0.7-0.1-1.1,0c-0.3,0-0.7,0-1.1-0.1c-0.2,0-0.5-0.1-0.6-0.2c-0.2-0.1-0.4-0.2-0.6-0.3c-0.2-0.1-0.3-0.4-0.3-0.7
					c0-0.1,0-0.2,0.1-0.4c0.1-0.1,0.2-0.2,0.3-0.2c0.4-0.2,1-0.3,1.6-0.3c2.3-0.2,4.5-0.4,6.8-0.5c2.3-0.1,4.5-0.2,6.8-0.1
					c0.4,0,0.7,0.1,1.1,0.1c0.3,0,0.7,0.1,1,0.4c0.4,0.2,0.6,0.4,0.6,0.8c0,0.4-0.2,0.7-0.6,0.8c-0.2,0.1-0.4,0.2-0.6,0.2
					c-0.2,0-0.4,0.1-0.7,0.1c-0.3,0-0.6,0.1-0.8,0.1c-0.3,0-0.5,0-0.8,0.1c-0.5,0-0.7,0.4-0.7,0.9c0.2,5.1,0.2,10.2,0.1,15.3
					c-0.1,5.1,0,10.2,0.4,15.3c0.1,1.8,0.2,3.6,0.1,5.5s-0.1,3.7-0.1,5.5v2.4c0,0.4,0.1,0.7,0.3,0.9c0.1,0.2,0.4,0.3,0.9,0.3
					c0.5,0,1,0,1.5,0C206.4,254.2,206.9,254.3,207.4,254.6z"/>
				<path d="M224.2,208.5c-1.2,0.4-1.7,1.1-1.5,2.3c0.2,1.2,0.8,2.6,1.9,4.3c1.1,1.7,2.5,3.7,4.3,5.9c1.7,2.2,3.6,4.6,5.6,7.2
					c1.8,2.4,3.4,4.9,4.5,7.3c1.2,2.5,1.8,4.9,1.8,7.3c0,2.4-0.7,4.6-2.1,6.7c-1.4,2.1-3.8,4-7.2,5.6c-1.8,0.9-3.7,1.4-5.6,1.6
					c-1.9,0.2-3.6,0-5.3-0.5c-1.7-0.5-3.2-1.4-4.5-2.6c-1.3-1.2-2.4-2.7-3.2-4.5c-0.2-0.6-0.5-1.3-0.7-2.3c-0.2-1-0.4-2-0.4-2.9
					c0-0.9,0-1.8,0.2-2.5c0.2-0.7,0.6-1,1.3-1c0.6,0,1,0.3,1,0.9c0.1,0.5,0.1,1.2,0,2.1c0,0.9,0,1.8,0.1,2.9
					c0.1,1.1,0.6,2.1,1.3,3.2c1.1,1.6,2.5,2.7,4.1,3.4c1.7,0.7,3.3,0.9,4.9,0.7c1.6-0.2,3-0.8,4.2-1.8c1.2-1,2-2.4,2.3-4.2
					c0.3-1.8,0.1-3.9-0.8-6.3c-0.9-2.5-2.6-5.2-5.3-8.4c-1.7-1.9-3.3-3.8-5-5.8c-1.7-2-3.1-3.9-4.2-5.9c-1.1-2-1.8-4-2.1-6
					c-0.3-2,0.2-3.9,1.5-5.9c0.9-1.3,2.1-2.5,3.8-3.4c1.7-0.9,3.5-1.4,5.6-1.5c2,0,4.1,0.6,6.2,1.7c2.1,1.2,3.9,3.2,5.6,6.2
					c0.2,0.4,0.4,0.8,0.6,1.2c0.2,0.4,0.3,0.8,0.4,1.2c0.1,0.3,0.1,0.6-0.1,0.9c-0.1,0.2-0.3,0.4-0.6,0.5c-0.3,0.1-0.5,0.1-0.8,0.1
					c-0.3-0.1-0.5-0.2-0.7-0.5c-0.5-0.8-1-1.7-1.7-2.8c-0.6-1.1-1.4-2-2.3-2.8c-0.9-0.8-2-1.4-3.3-1.8
					C227.3,207.9,225.8,208,224.2,208.5z"/>
			</g>
			<g>
				<path d="M274.6,223.7c-0.1,3.7,0,7.3,0.3,10.7c0.3,3.5,0.5,6.9,0.8,10.4c0.1,1.6,0.2,3.1,0.3,4.7c0,1.6,0.1,3.1,0.2,4.8
					c0,0.5,0,0.8-0.1,1.1c0,0.9-0.6,1.4-1.6,1.6c-0.9,0.1-1.9,0.2-2.8,0.2c-0.9,0-1.9,0.1-2.8,0.1c-1.5,0-2.5-0.7-2.9-2.2
					c0-0.2-0.1-0.5-0.1-0.7c0-0.2,0-0.4,0-0.7c-0.2-3.7-0.5-7.4-0.7-11c-0.2-3.7-0.4-7.3-0.6-11c-0.1-3.4-0.2-6.8-0.3-10.1
					c-0.1-3.3-0.2-6.7-0.2-10.1v-1.1c0-0.6-0.2-0.9-0.3-1.1c-0.2-0.2-0.6-0.3-1.2-0.3c-0.8,0-1.6-0.1-2.3-0.1c-0.7,0-1.5,0-2.3-0.1
					c-0.2,0-0.5,0-0.7-0.1c-0.3,0-0.5-0.1-0.7-0.2c-0.3-0.1-0.4-0.3-0.4-0.6c0-0.3,0.1-0.5,0.4-0.6c0.3-0.2,0.8-0.3,1.3-0.4
					c0.4,0,0.7-0.1,1.1,0c0.3,0,0.7,0,1.1,0l19.6,0.2c0.2,0,0.5,0,0.8,0c0.3,0,0.5,0.1,0.8,0.2c0.4,0.1,0.6,0.3,0.7,0.6
					c0.1,0.4-0.1,0.8-0.6,1.1c-0.3,0.1-0.6,0.2-0.9,0.2c-0.3,0-0.6,0-0.9,0h-4c-0.6,0-0.9,0.3-0.9,0.9v1.3c0,2.1,0.1,4.2,0.1,6.3
					C274.6,219.7,274.6,221.7,274.6,223.7z"/>
				<path d="M313.1,210.2c1.2,2.2,2,4.9,2.5,8c0.5,3.1,0.7,6.3,0.6,9.7c-0.1,3.4-0.4,6.7-1,10c-0.6,3.3-1.4,6.3-2.3,8.9
					c-1.4,3.7-3,6.4-4.8,8c-1.8,1.6-3.7,2.4-5.7,2.4c-2,0-3.9-0.8-5.9-2.2c-2-1.5-3.7-3.4-5.3-5.9c-1.6-2.5-2.9-5.3-3.9-8.5
					c-1-3.2-1.6-6.6-1.7-10.1c-0.1-3.5,0.2-7,1.2-10.6c0.9-3.6,2.6-7,4.9-10.2c1.2-1.7,2.7-3,4.3-3.8c1.6-0.9,3.4-1.4,5.4-1.6
					c2.5-0.3,4.8,0.1,6.8,1C310.2,206.2,311.9,207.9,313.1,210.2z M311.9,242.3c1.5-5.2,2.3-9.9,2.3-14.3c0-4.4-0.5-8.1-1.4-11.3
					c-0.9-3.1-2.1-5.5-3.7-7.2c-1.5-1.7-3-2.3-4.6-2c-1.6,0.3-3,1.7-4.2,4.2c-1.3,2.5-2.1,6.3-2.4,11.5c-0.2,3.5-0.2,7,0,10.4
					c0.3,3.4,0.7,6.5,1.4,9.2c0.7,2.7,1.5,5,2.4,6.8c0.9,1.8,2,2.8,3.1,3c1.1,0.2,2.3-0.4,3.5-2
					C309.6,249.1,310.8,246.3,311.9,242.3z"/>
			</g>
		</g>
		<path d="M103.2,166.4c-0.3,0-0.5-0.1-0.7-0.1c-2.6-0.1-5.2,0.1-7.7,0.6c-1.8,0.4-3.5,1-5.1,1.8c-0.7,0.4-1.4,0.7-2.1,1
			c-0.4,0.2-0.9,0.3-1.3,0.3c-1.2,0-1.8-0.9-1.4-2c0.3-0.7,0.7-1.4,1.3-2c1.4-1.5,3.1-2.5,4.9-3.3c3.4-1.4,6.9-2,10.5-2.2
			c0.4,0,0.8,0,1.1,0c0,0,0.1,0,0.2-0.1c0-0.2,0.1-0.5,0.1-0.8c0.2-3.5,0.3-7,0.6-10.6c0.4-5.4,0.8-10.9,2-16.2
			c0.4-1.7,0.9-3.3,1.5-5c0.9-2.4,3.4-3.7,5.8-3.3c1.8,0.3,2.8,1.3,3.3,3c0.4,1.4,0.3,2.8,0.2,4.3c-0.4,3.7-0.8,7.3-1.2,11
			c-0.2,2.5-0.3,4.9-0.3,7.4c0,3.6,0,7.1,0,10.7c0,0.3,0,0.6,0.1,1c3,0.5,5.9,0.8,8.8-0.1c0.9-0.3,1.7-0.8,2.5-1.3
			c1-0.6,2-1,3.2-0.9c0.5,0.1,1,0.2,1.4,0.5c0.7,0.4,0.9,1.2,0.6,1.9c-0.3,0.5-0.7,1.1-1.2,1.5c-3.1,2.6-6.7,3.7-10.7,3.8
			c-1.4,0.1-2.8,0-4.2,0c-0.1,0.2-0.2,0.2-0.2,0.3c0.1,4.4,0.4,8.8,1.3,13.1c0.4,1.8,1,3.6,1.7,5.3c0.9,2,2.2,3.7,4.1,4.8
			c1.3,0.8,1.9,0.7,3.1-0.2c1.5-1.2,2.6-2.8,3.6-4.5c1.6-2.8,2.7-5.9,3.7-8.9c2-6.2,3.5-12.4,4.5-18.8c0.1-0.8,0.2-1.7,0.3-2.6
			c-0.9-0.1-1.8-0.2-2.6-0.4c-3.1-0.5-5.9-1.7-8.3-3.7c-2.7-2.2-4-5.1-3.7-8.6c0.2-2.7,1.4-5,3.3-6.8c2.6-2.5,6.5-2.8,9.6-0.9
			c2.4,1.5,4,3.7,5.1,6.3c0.8,1.9,1.2,3.9,1.4,6c0.1,1.5,0.2,3.1,0.2,4.7c1.1,0.1,2.1,0,3.2-0.1c2.5-0.2,5-0.4,7.5,0.1
			c0.8,0.2,1.6,0.4,2.4,0.7c2,0.8,3.3,2.2,4,4.3c0.7,1.9,0.8,3.8,0.8,5.8c0,3.8,0,7.5,0,11.3c0.1,5,0.6,10,2.3,14.8
			c0.5,1.3,1.1,2.6,1.7,3.9c0.2,0.4,0.5,0.8,0.8,1.2c0.6-0.5,0.9-1.1,1.2-1.7c0.9-2,1.9-3.9,2.6-6c1.1-2.9,2-6,3.1-8.9
			c0.2-0.5,0.2-0.9,0-1.4c-1.5-4.3-1.7-8.8-1.3-13.3c0.3-3.4,0.9-6.7,2.1-9.9c1.1-2.9,2.7-5.5,4.9-7.6c2.9-2.7,6.4-3.8,10.3-4
			c4.4-0.2,8.3,1.2,11.9,3.8c0.9,0.7,1.8,1.4,2.8,2.2c0.1-0.2,0.3-0.4,0.4-0.6c1.2-1.9,3.8-2.7,5.9-2c1.2,0.4,2.1,1.3,2.2,2.6
			c0.1,1.3,0.1,2.7,0.1,4c-0.1,3.8-0.4,7.5-0.5,11.2c-0.2,6,0.4,11.8,2,17.6c0.9,3.3,2.4,6.5,4,9.5c0.2,0.4,0.5,0.7,0.8,1.2
			c0.3-0.3,0.7-0.6,0.9-0.9c0.9-1.3,1.8-2.7,2.6-4.1c1.9-3.5,3.2-7.2,4.5-10.9c0.5-1.4,1-2.8,1.4-4.2c0.1-0.5,0.2-1,0.1-1.5
			c-1-5.5-1.9-11-2.3-16.6c-0.2-2.3-0.2-4.7,0.4-6.9c0.6-2.5,2.2-4,4.6-4.3c2.2-0.3,3.6,0.8,4,2.9c0.1,0.4,0.1,0.8,0.1,1.2
			c0.1,7.8,1.3,15.4,2.9,23c0.7,3.4,1.6,6.8,2.8,10.1c1.3,3.6,3.3,6.7,5.6,9.7c0.1,0.1,0.2,0.3,0.4,0.4c0.1,0.1,0.1,0.1,0.3,0.2
			c0.4-0.4,0.9-0.7,1.3-1.1c1.7-1.7,3-3.7,4.1-5.7c3-5.3,5.1-11,6.5-17c0.5-1.9,0.9-3.8,1.3-5.7c-0.4-0.3-0.7-0.5-0.9-0.7
			c-3.9-3-6.9-6.8-8.3-11.6c-0.8-2.7-1-5.5-0.1-8.3c0.4-1.3,1-2.5,2-3.5c2.1-2.2,5.2-2.6,7.8-1c1.3,0.8,2.3,1.9,3.1,3.2
			c1.2,2.1,1.9,4.4,2.2,6.8c0.6,4.3,0.3,8.5-0.3,12.8c0,0.3-0.1,0.5-0.1,0.8c1.7,1.1,3.6,1.9,5.6,2.6c0.1-0.4,0.2-0.8,0.2-1.2
			c0.5-3.7,1.3-7.2,2.7-10.7c1.2-2.8,2.7-5.3,4.8-7.4c3.1-2.9,6.7-4.4,11.1-4c2.8,0.2,5,1.6,6.6,3.8c3.3,4.6,3.5,10.4,0.4,15.2
			c-2.9,4.4-7,7-12.1,8.2c-1.1,0.3-2.1,0.3-3.2,0.5c-0.3,0-0.7,0.1-1.1,0.1c0,0.8,0,1.5,0,2.3c0.2,3.5,0.7,6.9,1.8,10.3
			c1.5,4.4,4.2,8,7.7,11.1c2.1,1.8,4.5,2.2,7.1,1.4c1.4-0.4,2.7-1.2,3.9-2c1.9-1.3,3.6-2.9,5-4.7c1.9-2.4,3.8-4.9,5.7-7.3
			c0.3-0.4,0.4-0.8,0.2-1.3c-2.6-7.1-4.3-14.5-5.2-22c-0.5-3.8-0.6-7.7-0.5-11.6c0.2-6.1,1.1-12,3.3-17.7c1.1-2.8,2.6-5.3,4.5-7.6
			c1.6-1.9,3.6-3.4,6.1-4c3.9-0.9,8.4,0.1,11.1,4.5c1.7,2.8,2.6,5.8,3,9c0.7,5.8-0.2,11.4-1.7,17c-1.4,5.3-3.4,10.4-5.8,15.4
			c-1.9,4.1-4.1,8-6.1,12c-0.3,0.5-0.4,0.9-0.2,1.5c1.9,5.4,4.4,10.5,8.1,14.9c1,1.2,2.2,2.3,3.4,3.5c0.3,0.3,0.6,0.5,0.9,0.7
			c1.7,1.1,3.4,1.3,5.2,0.2c0.8-0.5,1.6-1,2.2-1.7c1.5-1.5,2.9-3.2,4-5c0.4-0.7,1-1.2,1.5-1.8c0.6-0.6,1.4-0.8,2.3-0.6
			c0.9,0.2,1.3,0.7,1.1,1.6c-0.1,0.4-0.1,0.8-0.3,1.2c-1.3,2.2-2.2,4.5-3.9,6.5c-2.5,3-5.7,5-9.7,5.3c-3.9,0.3-7.6-0.7-10.9-2.9
			c-2.2-1.4-4.2-3.1-5.6-5.3c-1.4-2.1-2.8-4.4-4.1-6.6c-0.2-0.3-0.4-0.6-0.6-1.1c-0.3,0.4-0.5,0.7-0.8,1c-1.9,2.5-3.7,5.1-6.1,7.2
			c-1.4,1.3-2.9,2.6-4.5,3.7c-8.6,5.8-18.4,3.3-24.2-3.2c-3.5-3.9-5.5-8.5-6.6-13.5c-0.7-3.4-1.1-6.8-1.1-10.3c0-0.4,0-0.7,0-1.1
			c-2.1-0.7-4.1-1.4-6.2-2.2c-0.1,0.2-0.2,0.4-0.2,0.6c-1.7,7.3-4.1,14.4-7.4,21.1c-0.9,1.7-1.8,3.4-2.9,5.1
			c-0.9,1.5-2.1,2.9-3.5,4.1c-3.2,2.7-7.2,2.9-10.8,0.7c-1.6-1-3-2.3-4.1-3.9c-2.6-3.6-4.3-7.6-5.5-11.8c-0.1-0.5-0.3-1-0.7-1.5
			c-0.5,1.7-1.1,3.4-1.6,5.1c-0.8,2.6-1.6,5.2-2.8,7.7c-0.6,1.2-1.3,2.4-2,3.5c-2.5,3.6-6.6,3.8-9.6,2.3c-2.6-1.3-4.6-3.3-6.1-5.8
			c-1.7-2.8-2.7-5.9-3.5-9.1c-0.4-1.7-0.7-3.5-1.1-5.5c-0.3,0.5-0.4,0.8-0.6,1.1c-1.1,1.9-2.1,3.8-3.2,5.7c-0.7,1.2-1.6,2.3-2.6,3.3
			c-4,4.1-9.5,4.8-14.4,1.9c-2.1-1.2-3.8-2.8-5.4-4.6c-0.2-0.3-0.4-0.5-0.7-0.9c-0.2,0.4-0.3,0.8-0.4,1.1c-0.8,2.9-1.6,5.8-2.5,8.6
			c-0.5,1.5-1.1,2.9-1.8,4.2c-2,4-5.8,4.3-8.6,3.3c-2.4-0.8-4.2-2.4-5.8-4.3c-2.2-2.6-3.2-5.6-3.9-8.9c-0.8-4.4-1.1-8.9-1.1-13.3
			c0-3.7,0.1-7.4,0-11c0-1-0.1-2.1-0.3-3.1c-0.3-1.5-0.9-2-2.4-2.2c-1.9-0.2-3.9-0.2-5.9,0c-0.1,1.1-0.3,2.3-0.4,3.4
			c-1.4,8.7-3.3,17.2-6.6,25.4c-0.7,1.7-1.5,3.3-2.4,4.8c-0.6,1.1-1.4,2-2.3,2.9c-2.9,3.2-6.5,4-10.7,3c-2.5-0.6-4.6-1.9-6.4-3.6
			c-4.3-3.9-7-8.6-8.4-14.2c-0.8-3.3-1.3-6.6-1.6-10C103.3,167.1,103.2,166.7,103.2,166.4z M179.9,165.7c0.2,2,0.3,4,0.7,6
			c0.5,2.9,1.3,5.6,2.7,8.2c0.8,1.4,1.8,2.7,3.1,3.7c1,0.7,2,0.9,3.1,0.4c0.9-0.5,1.8-1,2.6-1.8c1-1,1.9-2.1,2.7-3.2
			c2.3-3.2,4.2-6.7,6-10.2c0.2-0.4,0.3-0.8,0.3-1.3c0-1.2-0.1-2.5,0-3.7c0.2-3.5,0.4-7,0.6-10.4c0-0.4,0-0.8-0.3-1.2
			c-2.2-2.7-4.9-4.8-8.2-5.8c-2.7-0.8-6.3-0.5-8.6,2.9c-1.2,1.8-2.2,3.6-2.8,5.6C180.5,158.4,180,162,179.9,165.7z M317.3,164.8
			c0.2-0.4,0.4-0.6,0.5-0.9c4-7.6,7.1-15.5,9.3-23.7c1.2-4.4,1.9-8.8,1.6-13.3c-0.1-2.4-0.6-4.8-1.5-7c-0.5-1.1-1.1-2.2-2.1-3.1
			c-0.9-0.8-1.9-1-3-0.5c-0.8,0.4-1.4,1-1.9,1.7c-1,1.3-1.7,2.7-2.2,4.3c-1.9,5.5-3,11.1-3.3,16.8c-0.5,8.4,0.3,16.8,2.4,25
			C317.1,164.3,317.2,164.5,317.3,164.8z M279.3,162.3c1-0.1,1.7-0.2,2.5-0.3c5.3-1.1,9-4.1,10.8-9.2c0.9-2.7,0.6-5.3-0.7-7.8
			c-0.5-1-1.2-1.8-2.2-2.4c-0.6-0.4-1.3-0.5-1.9-0.1c-0.6,0.4-1.1,0.8-1.6,1.2c-1.5,1.5-2.6,3.3-3.6,5.2c-1.4,2.9-2.2,5.9-2.7,9
			C279.6,159.3,279.5,160.7,279.3,162.3z M137.6,152.2c0-1.1,0-2.2,0-3.2c-0.1-2.9-0.6-5.7-2-8.3c-0.6-1.2-1.4-2.2-2.4-3.1
			c-1.2-0.9-2.4-0.9-3.6,0c-0.2,0.2-0.5,0.4-0.6,0.6c-3.3,4.2-2.2,9.1,1.4,11.5C132.4,151.3,134.8,152.1,137.6,152.2z M259.6,154.4
			c0-0.1,0.1-0.3,0.1-0.5c0.4-3.1,0.4-6.2,0.1-9.3c-0.2-1.7-0.5-3.3-1.2-4.9c-0.4-0.8-0.8-1.6-1.4-2.3c-0.8-1-1.3-0.9-2,0.1
			c-0.4,0.5-0.7,1.1-0.9,1.7c-0.3,1-0.5,2-0.5,3c0,4.9,2.3,8.8,5.6,12.2C259.4,154.4,259.5,154.4,259.6,154.4z"/>
		<g>
			<path d="M146.9,304.4c1,5,2.4,9.7,4.9,14.1c1.6,2.9,3.7,5.6,6.3,7.7c1,0.8,2.2,1.5,3.3,2c1.4,0.6,2.7,0.4,3.9-0.6
				c0.8-0.7,1.5-1.4,2.2-2.2c1.9-2.4,3.4-5,4.7-7.8c1.6-3.3,3.2-6.7,4.8-10.1c0.3-0.6,0.3-1.2,0.2-1.9c-0.5-3.9-0.6-7.8-0.4-11.7
				c0.1-2.4,0.5-4.8,0.8-7.1c0.1-0.6,0.3-1.2,0.6-1.8c1.1-2.4,3.9-3.7,6.4-2.9c1.5,0.4,2.3,1.5,2.3,3.1c0,1.2-0.2,2.5-0.3,3.7
				c-0.5,5.2-0.5,10.4,0,15.6c0.7,7.2,3.3,13.7,7.8,19.5c0.6,0.8,1.3,1.5,2.2,1.9c0.5,0.2,0.9,0.2,1.3-0.2c0.5-0.6,1.1-1.2,1.5-1.9
				c1.1-1.8,2.2-3.7,3.1-5.6c1.6-3.5,3-7.1,4.5-10.7c0.3-0.6,0.3-1.2,0.1-1.8c-1.4-5.6-2.4-11.3-2.8-17.1c-0.1-1.4,0-2.9,0.2-4.4
				c0.4-3,3.1-4.8,6-4.2c1.8,0.4,2.8,1.5,3,3.4c0.2,1.8,0.2,3.7,0.5,5.5c1.2,9.2,3,18.3,6.8,26.8c1.3,3,3.1,5.7,5.2,8.3
				c0.7,0.8,1.5,1.5,2.3,2.3c0.6-0.7,1.2-1.2,1.7-1.8c3.4-4,6-8.4,8-13.1c2-4.6,3.6-9.4,4.7-14.3c0.1-0.4,0.2-0.8,0.3-1.2
				c0-0.1,0-0.1,0-0.3c-0.3-0.2-0.6-0.4-0.9-0.7c-4.2-3.1-7.3-7-9.2-11.8c-0.8-2-1.1-4-1-6.2c0.2-5.9,5.8-8.5,10.3-7
				c2,0.7,3.6,2,4.8,3.7c1.9,2.6,2.7,5.6,3.2,8.7c0.5,3.5,0.2,7-0.3,10.5c0,0.3-0.1,0.5-0.1,0.9c1.4,0.6,2.7,1.2,4.2,1.8
				c0.1-0.4,0.2-0.6,0.3-0.8c0.9-4,2.1-7.9,4.2-11.5c1.1-1.8,2.4-3.5,4.1-4.8c4.8-3.7,11.9-2.9,15.5,1.9c2.1,2.8,2.3,5.8,1.1,9
				c-0.9,2.5-2.6,4.5-4.7,6.1c-3.3,2.5-6.9,4.1-10.9,4.7c-0.1,0-0.2,0.1-0.4,0.1c0,0.1-0.1,0.3-0.1,0.4c-0.2,5.6,0.5,11,2.9,16.1
				c1.5,3.2,3.8,5.6,6.7,7.6c2.9,2,5.3,1.6,7.3-1.2c0.9-1.2,1.5-2.7,2.3-4c0.5-0.9,1.1-1.8,1.8-2.7c0.5-0.6,1.2-1,2-1.1
				c1.1-0.1,1.7,0.4,1.8,1.5c0,0.5,0,1.1-0.1,1.6c-1.2,3.9-3.1,7.5-6.4,10c-4.7,3.6-9.8,4.4-15.3,1.9c-2-0.9-3.7-2.4-5.1-4.2
				c-3.9-4.8-6.1-10.3-6.9-16.4c-0.4-3-0.7-6.1-0.4-9.2c0-0.3,0-0.5,0-0.9c-1.6-0.4-3.1-0.9-4.8-1.3c-0.1,0.2-0.2,0.4-0.2,0.7
				c-2,7.7-5.3,14.8-9.2,21.7c-1.4,2.4-3,4.8-4.6,7.1c-1.1,1.6-2.6,3.1-4.3,4.1c-2.2,1.3-4.6,1.7-7.1,1.1c-1.6-0.4-2.9-1.3-4.1-2.5
				c-2.2-2.3-4.1-4.9-5.4-7.8c-1.4-3-2.6-6-4-9.1c-0.1-0.2-0.2-0.3-0.3-0.6c-0.2,0.5-0.3,0.8-0.5,1.1c-0.9,2.3-1.8,4.7-2.7,7
				c-0.9,2.3-2,4.5-3.5,6.4c-1.2,1.6-2.6,2.8-4.4,3.5c-2.2,0.9-4.5,0.8-6.7-0.1c-3.5-1.5-6.3-3.8-8.3-7c-1.8-2.8-3.1-5.7-4.1-8.9
				c-0.1-0.3-0.2-0.6-0.3-1c-0.2,0.4-0.4,0.7-0.5,1c-0.8,2-1.7,3.9-2.5,5.9c-1.2,2.7-2.6,5.3-4.4,7.7c-1.9,2.5-4.2,4.3-7.1,5.3
				c-4.1,1.3-8,0.8-11.7-1.3c-3.8-2.1-6.5-5.3-8.6-9c-4-7.1-6.3-14.7-7.3-22.8c-0.7-6.1-0.6-12.3,0.1-18.4c0.6-4.7,1.6-9.3,3-13.8
				c1.4-4.2,3.2-8.1,6-11.5c2.6-3.1,5.8-5.3,9.8-5.9c4-0.7,7.5,0.4,10.4,3.3c2.7,2.8,4,6.3,4.4,10.1c0.4,4.6-0.3,9-2,13.4
				c-1.7,4.5-3.6,8.9-6.2,13c-2.4,3.8-5.2,7.3-8.9,9.9c-1.7,1.2-3.5,2.1-5.2,3.1C147.7,304,147.4,304.2,146.9,304.4z M146.2,300.8
				c0.6-0.3,0.9-0.5,1.2-0.7c4.3-2.5,7.5-6,10-10.2c3.3-5.4,5.5-11.2,6.6-17.5c0.5-3.1,0.7-6.2,0-9.3c-0.5-2.3-1.3-4.4-3-6
				c-1.3-1.2-2.2-1.3-3.6-0.2c-0.5,0.3-0.9,0.7-1.3,1.1c-1.4,1.3-2.6,2.9-3.6,4.6c-2,3.4-3.4,7.2-4.5,11c-1.9,6.9-2.5,13.9-2.3,21
				C145.9,296.5,146.1,298.5,146.2,300.8z M263.3,296.8c3.7-0.7,6.8-1.9,9-4.7c1.5-1.8,2-3.9,1.6-6.2c-0.3-1.7-1.1-3-2.7-3.8
				c-1-0.5-1.4-0.5-2.1,0.3c-0.7,0.8-1.4,1.7-2,2.7c-1.8,3.1-2.9,6.6-3.6,10.1C263.5,295.6,263.4,296.1,263.3,296.8z M244,289
				c0.1-0.3,0.2-0.5,0.2-0.7c0.2-2.8,0.2-5.6-0.5-8.4c-0.5-1.8-1.1-3.6-2.3-5.1c-0.5-0.6-1-1.1-1.9-1.3c-0.3,0.5-0.6,1-0.8,1.6
				c-0.4,1.3-0.4,2.6-0.1,3.9c0.7,3.7,2.6,6.8,5,9.7C243.6,288.8,243.8,288.9,244,289z"/>
			<path d="M182.2,278c-3,0-5.1-1.6-6-4.7c-0.7-2.4,0.1-5.1,2.7-6.7c1.4-0.9,2.9-1.3,4.6-1.2c3.3,0.3,5.3,2.3,5.8,5.6
				c0.3,2.3-0.5,4.1-2.4,5.4C185.5,277.5,183.9,278.1,182.2,278z"/>
		</g>
	</g>
	<g>
		<path class="st4" d="M243.2,112.7c1.4,0,2.3,0.2,3.1-0.9c6.3-8.4,6.8-7.9,4.4-8.7c-0.2-0.1-16.6-5.8-16.8-5.9
			c-0.5-0.2-0.6-0.7-0.3-1.1c2.3-3.1,2.5-3.6,3.8-3.4c22.4,2.5,21.3,2.9,22.3,1.6c7.6-10.1,8-11.3,10.9-11.6
			c3.7-0.4,4.7,4.2,2.4,7.1c-2.3,3.1-4.7,6.2-7,9.2c-0.5,0.7-0.6,1.3-0.3,2.1c0.1,0.3,7.7,19,7.8,19.3c0.3,1,0.1,1.2-2.4,4.3
			c-0.3,0.4-0.8,0.4-1.1,0c-0.1-0.1-10.6-15.2-10.6-15.3c-0.4-0.6-0.8-0.6-1.2,0c-6.2,8.1-6.3,7.9-5.9,9.2c0.9,2.8,1.3,3.5,0.5,4.5
			c-1.3,1.7-1.8,2.8-2.7,1.7c-5.2-6.9-2.7-5-10.5-8.1c-0.2-0.1-0.4-0.1-0.5-0.3c-0.3-0.2-0.4-0.6-0.2-0.9
			C240.9,112.3,240.5,112.7,243.2,112.7C243.2,112.7,243.2,112.7,243.2,112.7z"/>
		<g>
			<path class="st14" d="M163.9,223.3C163.9,223.3,163.8,223.3,163.9,223.3c-0.4,0.8-1.2,0.7-1.7,0c-1.9-2.8-2-4.7-2.9-7.3
				c-1.2-3.2,0.5-5.4,1.6-7.4c-0.1,0.1-0.2,0.1-0.3,0.1c-4.9,3.2-4.8,1.9-8.5,4.7c0.6,0.8,3.2,3.2,3.7,3.7c2.1,1.9,2.7,3.6,3.8,6
				c2.1,4.7,4.8,6.9,5.4,7.8c0.6,0.9-0.2,1.9-1.1,1.5c-1.5-0.5-4.3-2.6-5.6-3.5c-2.1-1.6-2.7-3-4.1-5.5c-0.2,1.6,0.4,2.3,2,4.6
				c1.5,2.1,1.5,3.5,2.4,5c1.9,3.4,0.8,4.6,2.6,7.1c0.4,0.6,0.8,1.2,1,2c0.1,0.2,0.2,0.4,0.3,0.6c2.2,3,2.7,3.4,2.1,3.9
				c-1.2,1-5.3-6.3-10.2-9.7c-3.1-2.1-5.4-3.6-6.4-7.2c-1.9-6.9-3.9-5.2-4.3-11.2c-0.1-1.4-0.1-2.8-0.2-4.2
				c-0.1-0.8-0.3-1.5-0.4-2.3c-1.3-9.7-0.8-13-3.1-12.9c-4.7,0.3-5.3,4.3-12,14c-0.9,1.2-1.9,2.3-3.2,3.1c-6.4,4.1-2.7,2.9-9.2,6.5
				c-1.4,0.7-2.1,2.8-2.7,3.5c-0.3,0.3-0.7,0.2-0.9-0.2c-0.1-0.4,0-0.9,0.2-1.7c-1-0.2-2-0.4-2.9-0.9c-0.1,0.7-0.3,4.2,0,5
				c1.2,3.3,1.1,2.7,1.4,3.2c0.3,0.5,0.7,0.9,0.3,1.2c-0.4,0.4-0.8-0.2-1.2-0.6c-2.2-2.3-3.2-4.7-4.7-8.7c-1.6-4.3-3.5-3.8-6.3-7.8
				c-0.3,0.5-1,2-1.3,2.5c-2,4.3-3.5,4.3-7,10.1c-1.3,2.2-4.7,5.2-6,6c-0.4,0.3-0.8-0.1-0.6-0.5c0.8-1.6,4.2-4.3,6.2-7.5
				c2.3-3.7,4-4.8,4.8-6.3c0.8-1.7,1.7-3.4,2.5-5.1c1.1-2.2,3.2-0.8,4.9-0.2c0.9,0.4,3.2,0.1,4.3,2.7c0.3,0.7,1.9,3.9,2.4,4.3
				c1.1,0.8,2.4,1.2,3.7,1.4c0.5-0.7,1-1.7,2.3-2.1c4.5-1.6,3.4-2.6,8.5-5.8c1.6-1,2.8-2.4,3.8-4c0.7-1.2,6-9.5,6.8-10.6
				c2.7-3.6,8.2-4.5,10-0.2c3.4,8.4,3.3,2.7,7.1,11.5c0.4-0.3,0.9-0.5,1.3-0.7c2.3-1.7,2.6-1,7.2-3.6c0.8-0.4,1.6-0.8,2.5-1
				c2.4-0.6,1,2.1,2.8,7.2c0.4,1.2,0.8,1.5,3.1,3.9c1.5,1.5,5.3,2.2,7.6,6.6c2,3.8,3.5,7.9,8.7,12.5c0.5,0.5,1,0.9,0.5,1.5
				c-0.6,0.7-1.3,0-2.5-1c-5.1-4.2-5.7-3.6-8.8-6.7c-4-3.9-7.1-1.5-8.9-5.4c-0.2-0.5-0.4-1-0.6-1.5C164,223.5,164,223.4,163.9,223.3
				z"/>
			<path class="st14" d="M135.7,238.1c-0.8,1-1.2,1.2-4.7,2.9c-0.5,0.2-0.9,0.4-1.4,0.6c-3.7,1.5-5.1,4-7.3,7.2
				c-0.4,0.5-0.7,1.1-1.3,0.8c-0.5-0.2-0.4-0.8-0.2-1.3c2.3-7.6,2.4-8.2,3.4-9.5c1.1-1.5,2-2.4,1.3-3.9c-1-2-1.3-2.7-1.2-3.8
				c0.2-2,3.3-5.8,3-7.5c-0.6-3.4-0.7-3.6-0.5-4.3c0.1-0.6,1-1.1,1.5-0.1c1.5,3.3,2.3,4,2.5,6.7c0.2,2.5,0.4,3.7,1.6,5.1
				c1,1.1,3.3,3.6,3.5,3.9C136.5,235.9,136.5,237.1,135.7,238.1z"/>
			<path class="st14" d="M113,234.2c-0.6-4,0.4-4.9,4.1-10.6c0.3-0.5,0.8-1,1.3-0.7c0.2,0.2,0.4,0.4,0.3,0.7
				c-0.8,2.4,0.3,2.8-1.9,7.7c-0.8,1.7-0.4,2.8-0.3,4.9c0.1,2.1-1,3.1-3,5.5c-0.3,0.4-0.8,0.6-1.2,0.3
				C110.9,241.3,113.6,238.6,113,234.2z"/>
		</g>
		<path class="st15" d="M290.3,346.4c-0.2-0.2-0.5-0.3-0.8-0.4c-0.9-0.4-1.9-0.9-2.8-1.3c-5.3-1.9-10.6-3.8-15.8-5.8
			c-0.5-0.2-1-0.3-1.6-0.5c-0.4-0.1-0.7-0.1-1.1-0.1c-0.9,0.1-1.2,0.9-0.8,1.8c0.2,0.4,0.4,0.7,0.6,1c1,1.1,2,2.3,3,3.4
			c0.1,0.1,0.2,0.2,0.3,0.4c-0.2,0-0.4,0-0.5,0c-9,0-17.9,0.1-26.9,0.1c-14.8,0.1-29.5,0.2-44.3,0.3c-0.9,0-1.5-0.2-2.2-1
			c-2-2.3-4.1-4.5-6.1-6.8c-0.6-0.7-1.2-1.1-2-1.1c-1.4-0.1-2.7-0.2-4.1-0.3c-0.2,0-0.5,0-0.7,0c-0.6,0.1-0.7,0.4-0.4,1
			c0.2,0.3,0.4,0.6,0.7,0.9c2,2.3,4,4.6,6.1,6.9c0.1,0.1,0.2,0.3,0.4,0.4c0,0.1,0,0.1-0.1,0.2c-0.5,0-1-0.1-1.5-0.1
			c-0.3,0-0.5-0.1-0.7-0.3c-0.6-0.7-1.2-1.3-1.7-2c-1.6-2-3.2-3.9-4.8-5.9c-0.5-0.7-1.2-1-1.9-1c-1.1,0-2.2,0-3.3,0.1
			c-0.3,0-0.5,0-0.8,0.1c-0.5,0.2-0.7,0.7-0.3,1.1c0.1,0.1,0.1,0.1,0.2,0.2c2.1,2.4,4.1,4.7,6.2,7.1c0.2,0.2,0.3,0.4,0.5,0.6
			c0,0,0,0.1-0.1,0.1c-0.7,0-1.5,0-2.2,0c-0.1,0-0.3-0.2-0.4-0.3c-0.5-0.6-0.9-1.2-1.4-1.8c-1.7-2.1-3.4-4.1-5.1-6.2
			c-0.3-0.3-0.6-0.6-1-0.6c-1.3-0.1-2.6,0.2-3.8,0.7c-0.7,0.3-0.8,1-0.3,1.7c0.2,0.3,0.4,0.6,0.7,0.8c1.1,1.2,2.2,2.3,3.3,3.5
			c1.3,1.4,2.5,2.8,3.8,4.2c0.1,0.1,0.1,0.2,0.1,0.2c-0.1,0.2-0.3,0.3-0.4,0.4c-2.2,2.3-4.4,4.6-6.4,7c-0.3,0.3-0.5,0.7-0.7,1.1
			c-0.3,0.6-0.2,1.2,0.3,1.5c0.2,0.1,0.4,0.2,0.6,0.3c0.9,0.2,1.8,0.4,2.7,0.4c0.5,0,0.9-0.2,1.3-0.6c2.1-2.4,4.2-4.8,6.3-7.3
			c0.1-0.2,0.3-0.3,0.5-0.3c0.7,0,1.5,0,2.3,0c-0.3,0.3-0.4,0.6-0.6,0.9c-1.1,1.4-2.1,2.7-3.2,4.1c-0.6,0.9-1.2,1.8-1.7,2.7
			c-0.5,0.8-0.2,1.4,0.6,1.4c1.2,0.1,2.4,0.1,3.6,0.1c0.5,0,1-0.3,1.3-0.7c1.1-1.6,2.3-3.3,3.5-4.9c0.9-1.2,1.8-2.3,2.7-3.5
			c0.1-0.1,0.3-0.3,0.4-0.3c0.4,0,0.8,0,1.4,0c-0.2,0.3-0.4,0.5-0.5,0.7c-1.5,2-2.9,4-4.4,5.9c-0.3,0.3-0.5,0.7-0.7,1.1
			c-0.3,0.7-0.1,1.4,0.5,1.6c0.2,0.1,0.3,0.1,0.5,0.1c1.2,0.2,2.4,0.3,3.6,0.2c0.4,0,0.8-0.2,1.1-0.6c0.4-0.4,0.8-0.9,1.1-1.3
			c2-2.4,3.9-4.9,5.8-7.4c0.3-0.4,0.6-0.5,1-0.5c21-0.1,42-0.2,63-0.3c3.1,0,6.2-0.1,9.3-0.2c0.1,0,0.2,0,0.4,0
			c-0.7,0.9-1.2,1.7-1.8,2.5c-0.5,0.7-1,1.4-1.5,2.2c-0.4,0.6-0.5,1.4-0.1,2c0.4,0.7,1,0.7,1.6,0.5c0,0,0.1,0,0.1,0
			c1-0.3,2.1-0.6,3.1-0.9c4.8-1.8,9.6-3.5,14.4-5.3c0.8-0.3,1.6-0.8,2.4-1.2c0.3-0.2,0.6-0.5,0.8-0.7
			C291.2,347.9,291.1,347,290.3,346.4z"/>
	</g>
</g>
</svg>
